<?xml version="1.0" encoding="UTF-8" standalone="no"?><svg xmlns="http://www.w3.org/2000/svg" xmlns:xlink="http://www.w3.org/1999/xlink" clip-rule="evenodd" stroke-miterlimit="4.00" viewBox="0 0 857 57"><desc>SVG generated by Keynote</desc><defs></defs><g transform="matrix(1.00, 0.00, -0.00, -1.00, 0.0, 57.0)"><text xml:space="preserve" font-family="Helvetica-Light" font-size="46.4" fill="#000000" transform="matrix(1.00, 0.00, -0.00, -1.00, -1.0, 12.0)">e</text><text xml:space="preserve" font-family="Helvetica-Light" font-size="46.4" fill="#000000" transform="matrix(1.00, 0.00, -0.00, -1.00, 24.8, 12.0)">C</text><text xml:space="preserve" font-family="Helvetica-Light" font-size="46.4" fill="#000000" transform="matrix(1.00, 0.00, -0.00, -1.00, 58.3, 12.0)">o</text><text xml:space="preserve" font-family="Helvetica-Light" font-size="46.4" fill="#000000" transform="matrix(1.00, 0.00, -0.00, -1.00, 84.1, 12.0)">m</text><text xml:space="preserve" font-family="Helvetica-Light" font-size="46.4" fill="#000000" transform="matrix(1.00, 0.00, -0.00, -1.00, 122.7, 12.0)">m</text><text xml:space="preserve" font-family="Helvetica-Light" font-size="46.4" fill="#000000" transform="matrix(1.00, 0.00, -0.00, -1.00, 161.4, 12.0)">e</text><text xml:space="preserve" font-family="Helvetica-Light" font-size="46.4" fill="#000000" transform="matrix(1.00, 0.00, -0.00, -1.00, 187.2, 12.0)">r</text><text xml:space="preserve" font-family="Helvetica-Light" font-size="46.4" fill="#000000" transform="matrix(1.00, 0.00, -0.00, -1.00, 201.8, 12.0)">c</text><text xml:space="preserve" font-family="Helvetica-Light" font-size="46.4" fill="#000000" transform="matrix(1.00, 0.00, -0.00, -1.00, 227.6, 12.0)">e</text><text xml:space="preserve" font-family="Helvetica-Light" font-size="46.4" fill="#000000" transform="matrix(1.00, 0.00, -0.00, -1.00, 253.4, 12.0)"> </text><text xml:space="preserve" font-family="Helvetica-Light" font-size="46.4" fill="#000000" transform="matrix(1.00, 0.00, -0.00, -1.00, 266.3, 12.0)">s</text><text xml:space="preserve" font-family="Helvetica-Light" font-size="46.4" fill="#000000" transform="matrix(1.00, 0.00, -0.00, -1.00, 289.5, 12.0)">t</text><text xml:space="preserve" font-family="Helvetica-Light" font-size="46.4" fill="#000000" transform="matrix(1.00, 0.00, -0.00, -1.00, 302.4, 12.0)">o</text><text xml:space="preserve" font-family="Helvetica-Light" font-size="46.4" fill="#000000" transform="matrix(1.00, 0.00, -0.00, -1.00, 328.2, 12.0)">r</text><text xml:space="preserve" font-family="Helvetica-Light" font-size="46.4" fill="#000000" transform="matrix(1.00, 0.00, -0.00, -1.00, 342.8, 12.0)">e</text><text xml:space="preserve" font-family="Helvetica-Light" font-size="46.4" fill="#000000" transform="matrix(1.00, 0.00, -0.00, -1.00, 368.6, 12.0)">:</text><text xml:space="preserve" font-family="Helvetica-Light" font-size="46.4" fill="#000000" transform="matrix(1.00, 0.00, -0.00, -1.00, 381.5, 12.0)"> </text><text xml:space="preserve" font-family="Helvetica-Light" font-size="46.4" fill="#000000" transform="matrix(1.00, 0.00, -0.00, -1.00, 394.4, 12.0)">p</text><text xml:space="preserve" font-family="Helvetica-Light" font-size="46.4" fill="#000000" transform="matrix(1.00, 0.00, -0.00, -1.00, 422.8, 12.0)">e</text><text xml:space="preserve" font-family="Helvetica-Light" font-size="46.4" fill="#000000" transform="matrix(1.00, 0.00, -0.00, -1.00, 448.6, 12.0)">r</text><text xml:space="preserve" font-family="Helvetica-Light" font-size="46.4" fill="#000000" transform="matrix(1.00, 0.00, -0.00, -1.00, 464.0, 12.0)">u</text><text xml:space="preserve" font-family="Helvetica-Light" font-size="46.4" fill="#000000" transform="matrix(1.00, 0.00, -0.00, -1.00, 489.8, 12.0)">v</text><text xml:space="preserve" font-family="Helvetica-Light" font-size="46.4" fill="#000000" transform="matrix(1.00, 0.00, -0.00, -1.00, 513.0, 12.0)">i</text><text xml:space="preserve" font-family="Helvetica-Light" font-size="46.4" fill="#000000" transform="matrix(1.00, 0.00, -0.00, -1.00, 523.3, 12.0)">a</text><text xml:space="preserve" font-family="Helvetica-Light" font-size="46.4" fill="#000000" transform="matrix(1.00, 0.00, -0.00, -1.00, 549.1, 12.0)">n</text><text xml:space="preserve" font-family="Helvetica-Light" font-size="46.4" fill="#000000" transform="matrix(1.00, 0.00, -0.00, -1.00, 574.9, 12.0)">p</text><text xml:space="preserve" font-family="Helvetica-Light" font-size="46.4" fill="#000000" transform="matrix(1.00, 0.00, -0.00, -1.00, 603.3, 12.0)">l</text><text xml:space="preserve" font-family="Helvetica-Light" font-size="46.4" fill="#000000" transform="matrix(1.00, 0.00, -0.00, -1.00, 613.6, 12.0)">a</text><text xml:space="preserve" font-family="Helvetica-Light" font-size="46.4" fill="#000000" transform="matrix(1.00, 0.00, -0.00, -1.00, 639.4, 12.0)">t</text><text xml:space="preserve" font-family="Helvetica-Light" font-size="46.4" fill="#000000" transform="matrix(1.00, 0.00, -0.00, -1.00, 652.3, 12.0)">a</text><text xml:space="preserve" font-family="Helvetica-Light" font-size="46.4" fill="#000000" transform="matrix(1.00, 0.00, -0.00, -1.00, 678.1, 12.0)">ï¬</text><text xml:space="preserve" font-family="Helvetica-Light" font-size="46.4" fill="#000000" transform="matrix(1.00, 0.00, -0.00, -1.00, 701.3, 12.0)">n</text><text xml:space="preserve" font-family="Helvetica-Light" font-size="46.4" fill="#000000" transform="matrix(1.00, 0.00, -0.00, -1.00, 727.1, 12.0)">a</text><text xml:space="preserve" font-family="Helvetica-Light" font-size="46.4" fill="#000000" transform="matrix(1.00, 0.00, -0.00, -1.00, 752.9, 12.0)">.</text><text xml:space="preserve" font-family="Helvetica-Light" font-size="46.4" fill="#000000" transform="matrix(1.00, 0.00, -0.00, -1.00, 765.8, 12.0)">c</text><text xml:space="preserve" font-family="Helvetica-Light" font-size="46.4" fill="#000000" transform="matrix(1.00, 0.00, -0.00, -1.00, 791.6, 12.0)">o</text><text xml:space="preserve" font-family="Helvetica-Light" font-size="46.4" fill="#000000" transform="matrix(1.00, 0.00, -0.00, -1.00, 817.4, 12.0)">m</text><g><clipPath id="clip-1"><path d="M 393.9 5.9 L 856.5 5.9 L 856.5 10.2 L 393.9 10.2 Z M 393.9 5.9 "></path></clipPath><g clip-path="url(#clip-1)"><path d="M 406.4 69.8 L 868.0 69.8 " fill="none" stroke="#000000" stroke-width="2.32" stroke-miterlimit="0.00" transform="matrix(1.00, 0.00, 0.00, -1.00, -11.5, 77.9)"></path></g></g></g></svg>