<?xml version="1.0" encoding="UTF-8" standalone="no"?><svg xmlns="http://www.w3.org/2000/svg" xmlns:xlink="http://www.w3.org/1999/xlink" clip-rule="evenodd" stroke-miterlimit="4.00" viewBox="0 0 1024 768"><desc>SVG generated by Keynote</desc><defs></defs><g transform="matrix(1.00, 0.00, -0.00, -1.00, 0.0, 768.0)"><path d="M 0.0 768.0 L 1024.0 768.0 L 1024.0 0.0 L 0.0 0.0 Z M 0.0 768.0 " fill="#FEFFFF"></path><text xml:space="preserve" font-family="Helvetica-Light" font-size="46.4" fill="#000000" transform="matrix(1.00, 0.00, -0.00, -1.00, 83.0, 675.0)">e</text><text xml:space="preserve" font-family="Helvetica-Light" font-size="46.4" fill="#000000" transform="matrix(1.00, 0.00, -0.00, -1.00, 108.8, 675.0)">C</text><text xml:space="preserve" font-family="Helvetica-Light" font-size="46.4" fill="#000000" transform="matrix(1.00, 0.00, -0.00, -1.00, 142.3, 675.0)">o</text><text xml:space="preserve" font-family="Helvetica-Light" font-size="46.4" fill="#000000" transform="matrix(1.00, 0.00, -0.00, -1.00, 168.1, 675.0)">m</text><text xml:space="preserve" font-family="Helvetica-Light" font-size="46.4" fill="#000000" transform="matrix(1.00, 0.00, -0.00, -1.00, 206.7, 675.0)">m</text><text xml:space="preserve" font-family="Helvetica-Light" font-size="46.4" fill="#000000" transform="matrix(1.00, 0.00, -0.00, -1.00, 245.4, 675.0)">e</text><text xml:space="preserve" font-family="Helvetica-Light" font-size="46.4" fill="#000000" transform="matrix(1.00, 0.00, -0.00, -1.00, 271.2, 675.0)">r</text><text xml:space="preserve" font-family="Helvetica-Light" font-size="46.4" fill="#000000" transform="matrix(1.00, 0.00, -0.00, -1.00, 285.8, 675.0)">c</text><text xml:space="preserve" font-family="Helvetica-Light" font-size="46.4" fill="#000000" transform="matrix(1.00, 0.00, -0.00, -1.00, 311.6, 675.0)">e</text><text xml:space="preserve" font-family="Helvetica-Light" font-size="46.4" fill="#000000" transform="matrix(1.00, 0.00, -0.00, -1.00, 337.4, 675.0)"> </text><text xml:space="preserve" font-family="Helvetica-Light" font-size="46.4" fill="#000000" transform="matrix(1.00, 0.00, -0.00, -1.00, 350.3, 675.0)">s</text><text xml:space="preserve" font-family="Helvetica-Light" font-size="46.4" fill="#000000" transform="matrix(1.00, 0.00, -0.00, -1.00, 373.5, 675.0)">t</text><text xml:space="preserve" font-family="Helvetica-Light" font-size="46.4" fill="#000000" transform="matrix(1.00, 0.00, -0.00, -1.00, 386.4, 675.0)">o</text><text xml:space="preserve" font-family="Helvetica-Light" font-size="46.4" fill="#000000" transform="matrix(1.00, 0.00, -0.00, -1.00, 412.2, 675.0)">r</text><text xml:space="preserve" font-family="Helvetica-Light" font-size="46.4" fill="#000000" transform="matrix(1.00, 0.00, -0.00, -1.00, 426.8, 675.0)">e</text><text xml:space="preserve" font-family="Helvetica-Light" font-size="46.4" fill="#000000" transform="matrix(1.00, 0.00, -0.00, -1.00, 452.6, 675.0)">:</text><text xml:space="preserve" font-family="Helvetica-Light" font-size="46.4" fill="#000000" transform="matrix(1.00, 0.00, -0.00, -1.00, 465.5, 675.0)"> </text><text xml:space="preserve" font-family="Helvetica-Light" font-size="46.4" fill="#000000" transform="matrix(1.00, 0.00, -0.00, -1.00, 478.4, 675.0)">p</text><text xml:space="preserve" font-family="Helvetica-Light" font-size="46.4" fill="#000000" transform="matrix(1.00, 0.00, -0.00, -1.00, 506.8, 675.0)">e</text><text xml:space="preserve" font-family="Helvetica-Light" font-size="46.4" fill="#000000" transform="matrix(1.00, 0.00, -0.00, -1.00, 532.6, 675.0)">r</text><text xml:space="preserve" font-family="Helvetica-Light" font-size="46.4" fill="#000000" transform="matrix(1.00, 0.00, -0.00, -1.00, 548.0, 675.0)">u</text><text xml:space="preserve" font-family="Helvetica-Light" font-size="46.4" fill="#000000" transform="matrix(1.00, 0.00, -0.00, -1.00, 573.8, 675.0)">v</text><text xml:space="preserve" font-family="Helvetica-Light" font-size="46.4" fill="#000000" transform="matrix(1.00, 0.00, -0.00, -1.00, 597.0, 675.0)">i</text><text xml:space="preserve" font-family="Helvetica-Light" font-size="46.4" fill="#000000" transform="matrix(1.00, 0.00, -0.00, -1.00, 607.3, 675.0)">a</text><text xml:space="preserve" font-family="Helvetica-Light" font-size="46.4" fill="#000000" transform="matrix(1.00, 0.00, -0.00, -1.00, 633.1, 675.0)">n</text><text xml:space="preserve" font-family="Helvetica-Light" font-size="46.4" fill="#000000" transform="matrix(1.00, 0.00, -0.00, -1.00, 658.9, 675.0)">p</text><text xml:space="preserve" font-family="Helvetica-Light" font-size="46.4" fill="#000000" transform="matrix(1.00, 0.00, -0.00, -1.00, 687.3, 675.0)">l</text><text xml:space="preserve" font-family="Helvetica-Light" font-size="46.4" fill="#000000" transform="matrix(1.00, 0.00, -0.00, -1.00, 697.6, 675.0)">a</text><text xml:space="preserve" font-family="Helvetica-Light" font-size="46.4" fill="#000000" transform="matrix(1.00, 0.00, -0.00, -1.00, 723.4, 675.0)">t</text><text xml:space="preserve" font-family="Helvetica-Light" font-size="46.4" fill="#000000" transform="matrix(1.00, 0.00, -0.00, -1.00, 736.3, 675.0)">a</text><text xml:space="preserve" font-family="Helvetica-Light" font-size="46.4" fill="#000000" transform="matrix(1.00, 0.00, -0.00, -1.00, 762.1, 675.0)">ï¬</text><text xml:space="preserve" font-family="Helvetica-Light" font-size="46.4" fill="#000000" transform="matrix(1.00, 0.00, -0.00, -1.00, 785.3, 675.0)">n</text><text xml:space="preserve" font-family="Helvetica-Light" font-size="46.4" fill="#000000" transform="matrix(1.00, 0.00, -0.00, -1.00, 811.1, 675.0)">a</text><text xml:space="preserve" font-family="Helvetica-Light" font-size="46.4" fill="#000000" transform="matrix(1.00, 0.00, -0.00, -1.00, 836.9, 675.0)">.</text><text xml:space="preserve" font-family="Helvetica-Light" font-size="46.4" fill="#000000" transform="matrix(1.00, 0.00, -0.00, -1.00, 849.8, 675.0)">c</text><text xml:space="preserve" font-family="Helvetica-Light" font-size="46.4" fill="#000000" transform="matrix(1.00, 0.00, -0.00, -1.00, 875.6, 675.0)">o</text><text xml:space="preserve" font-family="Helvetica-Light" font-size="46.4" fill="#000000" transform="matrix(1.00, 0.00, -0.00, -1.00, 901.4, 675.0)">m</text><g><clipPath id="clip-2"><path d="M 477.9 668.9 L 940.5 668.9 L 940.5 673.2 L 477.9 673.2 Z M 477.9 668.9 "></path></clipPath><g clip-path="url(#clip-2)"><path d="M 406.4 69.8 L 868.0 69.8 " fill="none" stroke="#000000" stroke-width="2.32" stroke-miterlimit="0.00" transform="matrix(1.00, 0.00, 0.00, -1.00, 72.5, 740.9)"></path></g></g><image xlink:href="0CA4949649C60611EAB98319F92439BB.png" width="2492.00" height="1488.00" transform="matrix(0.41, 0.00, -0.00, -0.41, 0.0, 607.0)"></image></g></svg>