<?xml version="1.0" encoding="UTF-8" standalone="no"?><svg xmlns="http://www.w3.org/2000/svg" xmlns:xlink="http://www.w3.org/1999/xlink" clip-rule="evenodd" stroke-miterlimit="4.00" viewBox="0 0 654 58"><desc>SVG generated by Keynote</desc><defs></defs><g transform="matrix(1.00, 0.00, -0.00, -1.00, 0.0, 58.0)"><text xml:space="preserve" font-family="Helvetica-Light" font-size="58.4" fill="#000000" transform="matrix(1.00, 0.00, -0.00, -1.00, 1.0, 14.0)">T</text><text xml:space="preserve" font-family="Helvetica-Light" font-size="58.4" fill="#000000" transform="matrix(1.00, 0.00, -0.00, -1.00, 28.1, 14.0)">r</text><text xml:space="preserve" font-family="Helvetica-Light" font-size="58.4" fill="#000000" transform="matrix(1.00, 0.00, -0.00, -1.00, 47.5, 14.0)">i</text><text xml:space="preserve" font-family="Helvetica-Light" font-size="58.4" fill="#000000" transform="matrix(1.00, 0.00, -0.00, -1.00, 60.5, 14.0)">g</text><text xml:space="preserve" font-family="Helvetica-Light" font-size="58.4" fill="#000000" transform="matrix(1.00, 0.00, -0.00, -1.00, 96.2, 14.0)">g</text><text xml:space="preserve" font-family="Helvetica-Light" font-size="58.4" fill="#000000" transform="matrix(1.00, 0.00, -0.00, -1.00, 131.9, 14.0)">e</text><text xml:space="preserve" font-family="Helvetica-Light" font-size="58.4" fill="#000000" transform="matrix(1.00, 0.00, -0.00, -1.00, 164.3, 14.0)">r</text><text xml:space="preserve" font-family="Helvetica-Light" font-size="58.4" fill="#000000" transform="matrix(1.00, 0.00, -0.00, -1.00, 183.8, 14.0)">i</text><text xml:space="preserve" font-family="Helvetica-Light" font-size="58.4" fill="#000000" transform="matrix(1.00, 0.00, -0.00, -1.00, 196.8, 14.0)">n</text><text xml:space="preserve" font-family="Helvetica-Light" font-size="58.4" fill="#000000" transform="matrix(1.00, 0.00, -0.00, -1.00, 229.2, 14.0)">g</text><text xml:space="preserve" font-family="Helvetica-Light" font-size="58.4" fill="#000000" transform="matrix(1.00, 0.00, -0.00, -1.00, 264.9, 14.0)"> </text><text xml:space="preserve" font-family="Helvetica-Light" font-size="58.4" fill="#000000" transform="matrix(1.00, 0.00, -0.00, -1.00, 281.1, 14.0)">a</text><text xml:space="preserve" font-family="Helvetica-Light" font-size="58.4" fill="#000000" transform="matrix(1.00, 0.00, -0.00, -1.00, 313.6, 14.0)">n</text><text xml:space="preserve" font-family="Helvetica-Light" font-size="58.4" fill="#000000" transform="matrix(1.00, 0.00, -0.00, -1.00, 346.1, 14.0)"> </text><text xml:space="preserve" font-family="Helvetica-Light" font-size="58.4" fill="#000000" transform="matrix(1.00, 0.00, -0.00, -1.00, 362.3, 14.0)">A</text><text xml:space="preserve" font-family="Helvetica-Light" font-size="58.4" fill="#000000" transform="matrix(1.00, 0.00, -0.00, -1.00, 401.3, 14.0)">l</text><text xml:space="preserve" font-family="Helvetica-Light" font-size="58.4" fill="#000000" transform="matrix(1.00, 0.00, -0.00, -1.00, 414.2, 14.0)">e</text><text xml:space="preserve" font-family="Helvetica-Light" font-size="58.4" fill="#000000" transform="matrix(1.00, 0.00, -0.00, -1.00, 446.7, 14.0)">r</text><text xml:space="preserve" font-family="Helvetica-Light" font-size="58.4" fill="#000000" transform="matrix(1.00, 0.00, -0.00, -1.00, 467.2, 14.0)">t</text><text xml:space="preserve" font-family="Helvetica-Light" font-size="58.4" fill="#000000" transform="matrix(1.00, 0.00, -0.00, -1.00, 483.4, 14.0)"> </text><text xml:space="preserve" font-family="Helvetica-Light" font-size="58.4" fill="#000000" transform="matrix(1.00, 0.00, -0.00, -1.00, 499.7, 14.0)">E</text><text xml:space="preserve" font-family="Helvetica-Light" font-size="58.4" fill="#000000" transform="matrix(1.00, 0.00, -0.00, -1.00, 535.4, 14.0)">m</text><text xml:space="preserve" font-family="Helvetica-Light" font-size="58.4" fill="#000000" transform="matrix(1.00, 0.00, -0.00, -1.00, 584.0, 14.0)">a</text><text xml:space="preserve" font-family="Helvetica-Light" font-size="58.4" fill="#000000" transform="matrix(1.00, 0.00, -0.00, -1.00, 616.5, 14.0)">i</text><text xml:space="preserve" font-family="Helvetica-Light" font-size="58.4" fill="#000000" transform="matrix(1.00, 0.00, -0.00, -1.00, 629.4, 14.0)">l</text><text xml:space="preserve" font-family="Helvetica-Light" font-size="58.4" fill="#000000" transform="matrix(1.00, 0.00, -0.00, -1.00, 642.4, 14.0)">:</text></g></svg>